<?xml version="1.0" encoding="utf-8"?>
<!-- Generator: Adobe Illustrator 27.1.0, SVG Export Plug-In . SVG Version: 6.00 Build 0)  -->
<svg version="1.1" xmlns="http://www.w3.org/2000/svg" xmlns:xlink="http://www.w3.org/1999/xlink" x="0px" y="0px"
	 viewBox="0 0 680 680" style="enable-background:new 0 0 680 680;" xml:space="preserve">
<style type="text/css">
	.st0{display:none;}
	.st1{display:inline;fill:#EA0A0A;}
	.st2{display:inline;fill:#FFFFFF;}
	.st3{display:inline;fill:none;stroke:#D0D3D8;stroke-width:1.2321;}
	.st4{display:inline;fill:none;stroke:#27AAE1;stroke-width:6.1607;}
	.st5{display:inline;fill:none;stroke:#E72168;stroke-width:2.4643;}
	.st6{fill:#FFFFFF;}
	.st7{fill:#E72168;stroke:#E72168;stroke-width:20;stroke-linecap:round;stroke-linejoin:round;stroke-miterlimit:10;}
	.st8{fill:none;stroke:#27AAE1;stroke-width:16;stroke-linecap:round;stroke-linejoin:round;stroke-miterlimit:10;}
	.st9{fill:#D6D6D6;}
	.st10{fill:#27AAE1;}
</style>
<g id="Layer_3" class="st0">
	<rect y="0" class="st1" width="680" height="680"/>
</g>
<g id="Layer_1" class="st0">
	<path class="st2" d="M315.2,310h50c2.8,0,5,2.2,5,5v50c0,2.8-2.2,5-5,5h-50c-2.8,0-5-2.2-5-5v-50C310.2,312.2,312.4,310,315.2,310z
		"/>
	<line class="st3" x1="325.2" y1="323" x2="325.2" y2="363.3"/>
	<line class="st3" x1="337.2" y1="323" x2="337.2" y2="363.3"/>
	<line class="st3" x1="313.1" y1="342.7" x2="361.4" y2="342.7"/>
	<line class="st3" x1="349.2" y1="323" x2="349.2" y2="363.3"/>
	<line class="st3" x1="313.1" y1="352.9" x2="361.4" y2="352.9"/>
	<line class="st3" x1="313.1" y1="332.6" x2="361.4" y2="332.6"/>
	<path class="st4" d="M315.2,361.1l16.5-23l12.1,6.7l21.6-29"/>
	<path class="st5" d="M316.3,323.6h41.4c1.4,0,2.5,1.1,2.5,2.5v33.6c0,1.4-1.1,2.5-2.5,2.5h-41.4c-1.4,0-2.5-1.1-2.5-2.5V326
		C313.8,324.7,314.9,323.6,316.3,323.6z"/>
</g>
<g id="Layer_2">
	<path class="st6" d="M62.8,7.6h554.3c30.6,0,55.4,24.8,55.4,55.4v554.3c0,30.6-24.8,55.4-55.4,55.4H62.8
		c-30.6,0-55.4-24.8-55.4-55.4V63.1C7.4,32.4,32.2,7.6,62.8,7.6z"/>
	<polygon class="st7" points="383.3,61.9 470.9,167.8 470.9,263.8 520.1,237.2 520.1,167.8 608.2,61.9 	"/>
	<g>
		<polyline class="st8" points="85.9,269.8 85.9,304.8 149.8,304.8 		"/>
		<polyline class="st8" points="268.2,610 204.3,610 204.3,390.4 204.3,358.3 204.3,390.4 268.2,390.4 		"/>
		<line class="st8" x1="204.3" y1="500.6" x2="268.2" y2="500.6"/>
		<path class="st9" d="M249.2,251.3H69.7c-6.6,0-12-5.4-12-12v-30c0-6.6,5.4-12,12-12h179.5c6.6,0,12,5.4,12,12v30
			C261.2,245.9,255.8,251.3,249.2,251.3z"/>
		<path class="st9" d="M362.9,331.9H183.4c-6.6,0-12-5.4-12-12v-30c0-6.6,5.4-12,12-12h179.5c6.6,0,12,5.4,12,12v30
			C374.9,326.5,369.5,331.9,362.9,331.9z"/>
		<path class="st9" d="M483.7,419.7H304.2c-6.6,0-12-5.4-12-12v-30c0-6.6,5.4-12,12-12h179.5c6.6,0,12,5.4,12,12v30
			C495.7,414.3,490.3,419.7,483.7,419.7z"/>
		<path class="st9" d="M483.7,637.2H304.2c-6.6,0-12-5.4-12-12v-30c0-6.6,5.4-12,12-12h179.5c6.6,0,12,5.4,12,12v30
			C495.7,631.8,490.3,637.2,483.7,637.2z"/>
		<path class="st10" d="M483.7,528.7H304.2c-6.6,0-12-5.4-12-12v-30c0-6.6,5.4-12,12-12h179.5c6.6,0,12,5.4,12,12v30
			C495.7,523.3,490.3,528.7,483.7,528.7z"/>
	</g>
</g>
<g id="Rulrs" class="st0">
</g>
</svg>
